<?xml version="1.0" standalone="no"?>
<!DOCTYPE svg PUBLIC "-//W3C//DTD SVG 20010904//EN"
 "http://www.w3.org/TR/2001/REC-SVG-20010904/DTD/svg10.dtd">
<svg version="1.0" xmlns="http://www.w3.org/2000/svg"
 width="700.000000pt" height="700.000000pt" viewBox="0 0 700.000000 700.000000"
 preserveAspectRatio="xMidYMid meet">
<metadata>
Created by potrace 1.11, written by Peter Selinger 2001-2013
</metadata>
<g transform="translate(0.000000,700.000000) scale(0.100000,-0.100000)"
fill="#000000" stroke="none">
<path d="M3160 6224 c-741 -89 -1358 -439 -1821 -1034 -413 -531 -604 -1163
-561 -1853 42 -662 262 -1198 691 -1682 519 -585 1222 -895 2031 -895 707 0
1337 238 1825 690 559 517 854 1142 894 1896 45 824 -227 1543 -799 2114 -445
444 -972 696 -1597 764 -173 19 -502 19 -663 0z m1079 -1135 c103 -23 153
-103 154 -247 1 -120 -27 -181 -98 -221 -27 -14 -96 -17 -610 -21 l-580 -5 -3
-1097 -2 -1097 614 -3 614 -3 44 -30 c65 -47 89 -112 85 -235 -3 -109 -17
-143 -80 -194 l-39 -31 -801 0 -802 0 -49 25 c-61 31 -100 78 -126 153 -20 55
-20 82 -20 1415 0 1490 -3 1413 60 1500 35 49 94 82 165 92 79 12 1423 11
1474 -1z m-365 -1183 c61 -27 137 -92 173 -149 60 -95 68 -251 18 -354 -36
-72 -112 -148 -182 -181 -51 -23 -71 -27 -158 -27 -88 0 -107 3 -157 27 -285
133 -291 535 -11 677 24 12 60 26 80 31 61 15 174 4 237 -24z"/>
</g>
</svg>
